<svg xmlns="http://www.w3.org/2000/svg" width="678" height="195" viewBox="0 0 678 195">
  <defs>
    <style>
      .cls-1, .cls-2, .cls-5 {
        fill: #fff;
      }

      .cls-1, .cls-2, .cls-3, .cls-4, .cls-5 {
        stroke: #fff;
      }

      .cls-1, .cls-2, .cls-3 {
        stroke-width: 1px;
      }

      .cls-1, .cls-4, .cls-5 {
        fill-rule: evenodd;
      }

      .cls-3, .cls-4 {
        fill: none;
      }

      .cls-4, .cls-5 {
        stroke-width: 4px;
      }
    </style>
  </defs>
  <path id="GO" class="cls-1" d="M548.551,130.289H470.988v3.365q0.885,6.553,8.589,10.979t18.328,4.427h21.25v16.646H459.124V113.82h89.427q0-9.562-7.261-14.078t-19.656-4.516H456.113a36.03,36.03,0,0,0-10.271,1.417,31.447,31.447,0,0,0-8.411,3.808,19.513,19.513,0,0,0-5.755,5.666,12.923,12.923,0,0,0-2.125,7.172v52.24a13.949,13.949,0,0,0,2.125,7.614,19.066,19.066,0,0,0,5.755,5.755,29.531,29.531,0,0,0,8.411,3.719,37.536,37.536,0,0,0,10.094,1.328h65.7a46,46,0,0,0,10.448-1.151,27.522,27.522,0,0,0,8.589-3.453,18.206,18.206,0,0,0,5.755-5.667,14.947,14.947,0,0,0,2.125-8.145v-35.24Zm129.624-16.646a15.193,15.193,0,0,0-7.526-13.724q-7.529-4.69-19.568-4.693H585.56a40.9,40.9,0,0,0-10.271,1.24,27.908,27.908,0,0,0-8.411,3.63,17.8,17.8,0,0,0-5.667,5.844,14.236,14.236,0,0,0-2.036,7.349v52.417a13.953,13.953,0,0,0,2.036,7.526,18.462,18.462,0,0,0,5.667,5.666,29.531,29.531,0,0,0,8.411,3.719,38.218,38.218,0,0,0,10.271,1.328h65.521a50.686,50.686,0,0,0,10.625-1.062,27.427,27.427,0,0,0,8.589-3.276,17.711,17.711,0,0,0,5.755-5.49,14.5,14.5,0,0,0,2.125-8.057V113.643ZM648.6,165.706H588.748V113.82H648.6v51.886Z"/>
  <path id="MD" class="cls-1" d="M129.53,183.945V95.227h-5.49q-2.3,0-6.02.088a34.187,34.187,0,0,0-7.792,1.151,55.758,55.758,0,0,0-8.146,2.833,20.978,20.978,0,0,0-7.26,5.313l-30.1,31.875L34.259,104.612A22.812,22.812,0,0,0,26.822,99.3a57.463,57.463,0,0,0-8.057-2.833,32.774,32.774,0,0,0-7.615-1.151q-3.632-.087-5.932-0.088H-0.449v88.718H29.124V129.4L64.717,169.07,99.957,129.4v54.541H129.53ZM259.153,113.82q0-9.031-7.26-13.812t-19.656-4.781H140.153v88.718h92.084a45.668,45.668,0,0,0,10.536-1.151,28.7,28.7,0,0,0,8.589-3.453,17.054,17.054,0,0,0,5.755-5.667,15.457,15.457,0,0,0,2.036-8.145V113.82Zm-29.4,0v51.886h-59.5V113.82h59.5Z"/>
  <circle class="cls-2" cx="355.469" cy="94.5" r="12.5"/>
  <g>
    <circle class="cls-3" cx="384.453" cy="70.5" r="7.484"/>
    <path id="Line_1" data-name="Line 1" class="cls-4" d="M386.953,66l7-14Z"/>
    <path id="Polygon_1" data-name="Polygon 1" class="cls-4" d="M424.62,46.835l-30.18,4.782L380.558,24.389l21.6-21.609,27.232,13.872Z"/>
  </g>
  <g id="Group_1_copy" data-name="Group 1 copy">
    <circle class="cls-3" cx="330.531" cy="119.656" r="7.5"/>
    <path id="Line_1-2" data-name="Line 1" class="cls-4" d="M326.622,123.05L315.26,133.811Z"/>
    <path id="Polygon_1-2" data-name="Polygon 1" class="cls-4" d="M284.677,128.17l30,5.83,3.732,30.334-27.69,12.916L269.87,154.9Z"/>
  </g>
  <g id="Group_1_copy_2" data-name="Group 1 copy 2">
    <circle class="cls-3" cx="326.453" cy="67.938" r="7.484"/>
    <path id="Line_1-3" data-name="Line 1" class="cls-4" d="M322.044,65.284L308.3,57.8Z"/>
    <path id="Polygon_1-3" data-name="Polygon 1" class="cls-4" d="M304.212,26.957l3.714,30.331L280.227,70.2l-20.834-22.35,14.824-26.726Z"/>
  </g>
  <g id="Group_1_copy_3" data-name="Group 1 copy 3">
    <circle class="cls-2" cx="381.438" cy="122.891" r="7.5"/>
    <path id="Line_1-4" data-name="Line 1" class="cls-5" d="M382.926,127.817l5.206,14.76Z"/>
    <path id="Polygon_1-4" data-name="Polygon 1" class="cls-4" d="M370.541,168.24l17.519-25.028,29.208,8.933L417.8,182.7l-28.879,9.947Z"/>
  </g>
</svg>
