<svg xmlns="http://www.w3.org/2000/svg" width="100%" height="100%" viewBox="0 0 678 195">
  <defs>
    <style>
      .cls-1 {
        font-size: 166.667px;
        font-family: Counter-Strike;
      }

      .cls-1, .cls-2, .cls-3 {
        fill: #1f497d;
      }

      .cls-2, .cls-3, .cls-4 {
        stroke: #1f497d;
      }

      .cls-2 {
        stroke-width: 1px;
      }

      .cls-3, .cls-4 {
        stroke-width: 4px;
        fill-rule: evenodd;
      }

      .cls-4 {
        fill: none;
      }
    </style>
  </defs>
  <text id="GO" class="cls-1" x="432.239" y="183.945">GO</text>
  <text id="MD" class="cls-1" x="-2.762" y="183.945">MD</text>
  <circle class="cls-2" cx="356.469" cy="94.5" r="12.5"/>
  <g>
    <circle class="cls-2" cx="385.453" cy="70.5" r="7.484"/>
    <path id="Line_1" data-name="Line 1" class="cls-3" d="M387.953,66l7-14Z"/>
    <path id="Polygon_1" data-name="Polygon 1" class="cls-4" d="M425.624,46.832l-30.176,4.781L381.569,24.39l21.6-21.6,27.227,13.87Z"/>
  </g>
  <g id="Group_1_copy" data-name="Group 1 copy">
    <circle class="cls-2" cx="331.531" cy="119.656" r="7.5"/>
    <path id="Line_1-2" data-name="Line 1" class="cls-3" d="M327.622,123.05L316.26,133.811Z"/>
    <path id="Polygon_1-2" data-name="Polygon 1" class="cls-4" d="M285.67,128.173l29.988,5.833,3.734,30.33L291.71,177.249,270.869,154.9Z"/>
  </g>
  <g id="Group_1_copy_2" data-name="Group 1 copy 2">
    <circle class="cls-2" cx="327.453" cy="67.938" r="7.484"/>
    <path id="Line_1-3" data-name="Line 1" class="cls-3" d="M323.044,65.284L309.3,57.8Z"/>
    <path id="Polygon_1-3" data-name="Polygon 1" class="cls-4" d="M305.209,26.954l3.714,30.325-27.694,12.91L260.4,47.843l14.82-26.721Z"/>
  </g>
  <g id="Group_1_copy_3" data-name="Group 1 copy 3">
    <circle class="cls-2" cx="382.438" cy="122.891" r="7.5"/>
    <path id="Line_1-4" data-name="Line 1" class="cls-3" d="M383.926,127.817l5.206,14.76Z"/>
    <path id="Polygon_1-4" data-name="Polygon 1" class="cls-4" d="M371.541,168.24l17.524-25.028,29.217,8.933,0.533,30.55-28.887,9.947Z"/>
  </g>
</svg>
